<?xml version="1.0" encoding="UTF-8"?>
<!DOCTYPE svg PUBLIC "-//W3C//DTD SVG 1.1//EN" "http://www.w3.org/Graphics/SVG/1.1/DTD/svg11.dtd">
<svg xmlns="http://www.w3.org/2000/svg" version="1.1" width="512px" height="512px" style="shape-rendering:geometricPrecision; text-rendering:geometricPrecision; image-rendering:optimizeQuality; fill-rule:evenodd; clip-rule:evenodd" xmlns:xlink="http://www.w3.org/1999/xlink">
<g><path style="opacity:0.994" fill="#1b72e7" d="M 290.5,96.5 C 268.106,121.839 246.772,147.506 226.5,173.5C 225.5,175.167 224.167,176.5 222.5,177.5C 203.895,162.901 185.562,147.901 167.5,132.5C 182.416,114.026 201.416,101.526 224.5,95C 246.782,88.7531 268.782,89.2531 290.5,96.5 Z"/></g>
<g><path style="opacity:0.991" fill="#4285f3" d="M 290.5,96.5 C 321.117,105.785 343.451,124.785 357.5,153.5C 335.5,179.167 313.5,204.833 291.5,230.5C 303.528,208.083 300.195,188.25 281.5,171C 262.53,159.055 244.197,159.888 226.5,173.5C 246.772,147.506 268.106,121.839 290.5,96.5 Z"/></g>
<g><path style="opacity:0.99" fill="#e94335" d="M 167.5,132.5 C 185.562,147.901 203.895,162.901 222.5,177.5C 222.262,179.404 221.262,180.738 219.5,181.5C 196.833,207.833 174.167,234.167 151.5,260.5C 134.651,219.904 137.151,180.571 159,142.5C 161.614,138.91 164.448,135.576 167.5,132.5 Z"/></g>
<g><path style="opacity:0.994" fill="#34a853" d="M 357.5,153.5 C 370.56,179.097 374.06,206.097 368,234.5C 362.674,256.15 353.34,275.816 340,293.5C 321.362,316.116 303.695,339.449 287,363.5C 283.078,370.342 279.412,377.342 276,384.5C 272.393,395.322 268.393,405.988 264,416.5C 258.333,421.833 252.667,421.833 247,416.5C 241.504,400.013 234.838,384.013 227,368.5C 219.726,356.736 211.893,345.402 203.5,334.5C 231.222,303.111 258.222,271.111 284.5,238.5C 286.843,235.793 289.177,233.126 291.5,230.5C 313.5,204.833 335.5,179.167 357.5,153.5 Z"/></g>
<g><path style="opacity:0.991" fill="#fabb04" d="M 219.5,181.5 C 208.009,202.661 210.676,221.828 227.5,239C 246.662,253.06 265.662,252.893 284.5,238.5C 258.222,271.111 231.222,303.111 203.5,334.5C 186.893,315.306 171.726,294.973 158,273.5C 155.82,269.14 153.653,264.807 151.5,260.5C 174.167,234.167 196.833,207.833 219.5,181.5 Z"/></g>
</svg>
