<?xml version="1.0" encoding="UTF-8"?>
<!DOCTYPE svg PUBLIC "-//W3C//DTD SVG 1.1//EN" "http://www.w3.org/Graphics/SVG/1.1/DTD/svg11.dtd">
<svg xmlns="http://www.w3.org/2000/svg" version="1.1" width="1248px" height="1248px" style="shape-rendering:geometricPrecision; text-rendering:geometricPrecision; image-rendering:optimizeQuality; fill-rule:evenodd; clip-rule:evenodd" xmlns:xlink="http://www.w3.org/1999/xlink">
<g><path style="opacity:1" fill="#ff0000" d="M 604.5,207.5 C 711.888,204.452 797.722,245.452 862,330.5C 903.877,390.339 920.877,456.672 913,529.5C 904.389,569.333 891.389,607.666 874,644.5C 850.97,692.903 825.637,739.903 798,785.5C 743.907,872.912 685.907,957.579 624,1039.5C 542.134,933.49 468.467,821.823 403,704.5C 383.35,667.546 366.016,629.546 351,590.5C 320.381,508.1 327.048,428.766 371,352.5C 424.841,265.974 502.675,217.641 604.5,207.5 Z M 613.5,292.5 C 696.064,291.519 758.898,325.852 802,395.5C 838.09,464.389 837.09,532.723 799,600.5C 758.594,663.286 700.761,695.953 625.5,698.5C 538.699,694.379 476.532,653.379 439,575.5C 409.602,498.609 420.269,427.942 471,363.5C 508.974,320.763 556.474,297.096 613.5,292.5 Z"/></g>
<g><path style="opacity:1" fill="#00ff21" d="M 742.5,417.5 C 716.167,417.5 689.833,417.5 663.5,417.5C 663.5,443.833 663.5,470.167 663.5,496.5C 637.5,496.5 611.5,496.5 585.5,496.5C 585.5,470.167 585.5,443.833 585.5,417.5C 559.167,417.5 532.833,417.5 506.5,417.5C 506.5,391.5 506.5,365.5 506.5,339.5C 585.167,339.5 663.833,339.5 742.5,339.5C 742.5,365.5 742.5,391.5 742.5,417.5 Z"/></g>
<g><path style="opacity:1" fill="#ff0000" d="M 506.5,417.5 C 532.833,417.5 559.167,417.5 585.5,417.5C 585.5,443.833 585.5,470.167 585.5,496.5C 611.5,496.5 637.5,496.5 663.5,496.5C 663.5,470.167 663.5,443.833 663.5,417.5C 689.833,417.5 716.167,417.5 742.5,417.5C 742.5,496.167 742.5,574.833 742.5,653.5C 716.167,653.5 689.833,653.5 663.5,653.5C 663.5,627.167 663.5,600.833 663.5,574.5C 637.167,574.5 610.833,574.5 584.5,574.5C 584.5,600.833 584.5,627.167 584.5,653.5C 558.5,653.5 532.5,653.5 506.5,653.5C 506.5,574.833 506.5,496.167 506.5,417.5 Z"/></g>
</svg>
