<?xml version="1.0" encoding="UTF-8"?>
<!DOCTYPE svg PUBLIC "-//W3C//DTD SVG 1.1//EN" "http://www.w3.org/Graphics/SVG/1.1/DTD/svg11.dtd">
<svg xmlns="http://www.w3.org/2000/svg" version="1.1" width="832px" height="832px" style="shape-rendering:geometricPrecision; text-rendering:geometricPrecision; image-rendering:optimizeQuality; fill-rule:evenodd; clip-rule:evenodd" xmlns:xlink="http://www.w3.org/1999/xlink">
<g><path style="opacity:1" fill="#ff0000" d="M 396.5,-0.5 C 412.833,-0.5 429.167,-0.5 445.5,-0.5C 539.332,12.803 612.166,58.803 664,137.5C 714.28,220.585 720.613,306.918 683,396.5C 656.958,459.589 625.958,519.922 590,577.5C 535.828,664.808 477.995,749.475 416.5,831.5C 415.833,831.5 415.167,831.5 414.5,831.5C 395.841,804.871 376.675,778.538 357,752.5C 295.13,666.563 238.796,576.896 188,483.5C 167.36,444.223 150.027,403.556 136,361.5C 118.22,304.329 119.887,247.662 141,191.5C 177.379,99.4534 242.879,38.9534 337.5,10C 357.023,4.8588 376.69,1.3588 396.5,-0.5 Z M 405.5,84.5 C 488.064,83.5186 550.898,117.852 594,187.5C 630.09,256.389 629.09,324.723 591,392.5C 550.594,455.286 492.761,487.953 417.5,490.5C 330.699,486.379 268.532,445.379 231,367.5C 201.602,290.609 212.269,219.942 263,155.5C 300.974,112.763 348.474,89.0962 405.5,84.5 Z"/></g>
<g><path style="opacity:1" fill="#00ff21" d="M 534.5,209.5 C 508.167,209.5 481.833,209.5 455.5,209.5C 455.5,235.833 455.5,262.167 455.5,288.5C 429.5,288.5 403.5,288.5 377.5,288.5C 377.5,262.167 377.5,235.833 377.5,209.5C 351.167,209.5 324.833,209.5 298.5,209.5C 298.5,183.5 298.5,157.5 298.5,131.5C 377.167,131.5 455.833,131.5 534.5,131.5C 534.5,157.5 534.5,183.5 534.5,209.5 Z"/></g>
<g><path style="opacity:1" fill="#ff0000" d="M 298.5,209.5 C 324.833,209.5 351.167,209.5 377.5,209.5C 377.5,235.833 377.5,262.167 377.5,288.5C 403.5,288.5 429.5,288.5 455.5,288.5C 455.5,262.167 455.5,235.833 455.5,209.5C 481.833,209.5 508.167,209.5 534.5,209.5C 534.5,288.167 534.5,366.833 534.5,445.5C 508.167,445.5 481.833,445.5 455.5,445.5C 455.5,419.167 455.5,392.833 455.5,366.5C 429.167,366.5 402.833,366.5 376.5,366.5C 376.5,392.833 376.5,419.167 376.5,445.5C 350.5,445.5 324.5,445.5 298.5,445.5C 298.5,366.833 298.5,288.167 298.5,209.5 Z"/></g>
</svg>
