<?xml version="1.0" encoding="UTF-8"?>
<!DOCTYPE svg PUBLIC "-//W3C//DTD SVG 1.1//EN" "http://www.w3.org/Graphics/SVG/1.1/DTD/svg11.dtd">
<svg xmlns="http://www.w3.org/2000/svg" version="1.1" width="512px" height="512px" style="shape-rendering:geometricPrecision; text-rendering:geometricPrecision; image-rendering:optimizeQuality; fill-rule:evenodd; clip-rule:evenodd" xmlns:xlink="http://www.w3.org/1999/xlink">
<g><path style="opacity:1" fill="#feab00" d="M 241.5,106.5 C 304.887,103.604 353.054,128.937 386,182.5C 410.666,231.155 410.666,279.822 386,328.5C 364.003,366.602 331.503,390.769 288.5,401C 278.863,409.636 269.53,418.636 260.5,428C 257.167,430 253.833,430 250.5,428C 241.47,418.636 232.137,409.636 222.5,401C 167.814,387.314 131.314,353.814 113,300.5C 96.9057,240.481 110.739,188.648 154.5,145C 179.446,122.964 208.446,110.131 241.5,106.5 Z M 248.5,170.5 C 291.325,170.192 320.491,189.859 336,229.5C 346.558,270.833 334.391,303.666 299.5,328C 258.379,348.983 221.879,342.817 190,309.5C 164.001,273.494 164.001,237.494 190,201.5C 205.72,183.891 225.22,173.558 248.5,170.5 Z"/></g>
</svg>
