<?xml version="1.0" encoding="UTF-8"?>
<!DOCTYPE svg PUBLIC "-//W3C//DTD SVG 1.1//EN" "http://www.w3.org/Graphics/SVG/1.1/DTD/svg11.dtd">
<svg xmlns="http://www.w3.org/2000/svg" version="1.1" width="800px" height="800px" style="shape-rendering:geometricPrecision; text-rendering:geometricPrecision; image-rendering:optimizeQuality; fill-rule:evenodd; clip-rule:evenodd" xmlns:xlink="http://www.w3.org/1999/xlink">
<g><path style="opacity:0.994" fill="#000000" d="M 420.5,100.5 C 478.782,98.9884 534.115,110.822 586.5,136C 645.169,168.34 687.336,215.507 713,277.5C 745.945,370.412 731.612,455.078 670,531.5C 659.137,542.697 647.971,553.53 636.5,564C 617.943,577.556 599.11,590.723 580,603.5C 585.617,629.233 580.617,652.566 565,673.5C 546.35,694.222 523.184,702.055 495.5,697C 480.041,692.854 467.541,684.354 458,671.5C 450.445,660.055 444.778,647.721 441,634.5C 440.333,633.167 439.333,632.167 438,631.5C 406.905,632.329 375.738,632.829 344.5,633C 341.42,648.25 335.254,662.083 326,674.5C 297.307,702.391 265.807,705.891 231.5,685C 215.439,671.715 206.606,654.548 205,633.5C 204.832,624.482 204.332,615.482 203.5,606.5C 173.069,592.794 144.403,576.294 117.5,557C 99.8569,542.359 84.6902,525.526 72,506.5C 64.574,488.028 68.7407,472.862 84.5,461C 93.9304,456.282 103.93,454.282 114.5,455C 131.32,451.513 141.487,441.346 145,424.5C 145.893,419.477 146.893,414.477 148,409.5C 152.813,376.937 156.813,344.271 160,311.5C 170.804,258.086 196.637,213.586 237.5,178C 290.182,132.603 351.182,106.77 420.5,100.5 Z M 422.5,136.5 C 519.333,132.841 597.166,169.174 656,245.5C 693.226,301.523 703.226,362.189 686,427.5C 670.281,477.764 640.781,517.93 597.5,548C 586.167,555 574.833,562 563.5,569C 560.594,570.318 557.594,570.652 554.5,570C 512.304,546.638 476.97,554.304 448.5,593C 446.913,593.862 445.246,594.529 443.5,595C 409.166,595.144 374.833,594.811 340.5,594C 338.275,593.439 336.275,592.439 334.5,591C 312.211,560.198 282.877,550.532 246.5,562C 239.221,566.283 231.721,570.116 224,573.5C 176.739,558.811 137.906,532.144 107.5,493.5C 107.709,492.914 108.043,492.414 108.5,492C 145.6,489.895 169.434,471.061 180,435.5C 182.634,426.299 184.634,416.966 186,407.5C 188.475,382.514 190.809,357.514 193,332.5C 197.677,292.081 213.343,256.747 240,226.5C 289.506,173.664 350.339,143.664 422.5,136.5 Z"/></g>
<g><path style="opacity:0.992" fill="#000000" d="M 358.5,274.5 C 385.652,274.817 398.486,288.484 397,315.5C 389.366,337.603 374.2,345.77 351.5,340C 335.326,331.823 328.493,318.657 331,300.5C 335.196,286.468 344.363,277.801 358.5,274.5 Z"/></g>
<g><path style="opacity:0.993" fill="#000000" d="M 513.5,274.5 C 530.958,273.476 543.458,280.809 551,296.5C 556.328,318.012 548.828,332.845 528.5,341C 498.867,343.701 485.034,330.201 487,300.5C 490.739,286.563 499.572,277.896 513.5,274.5 Z"/></g>
<g><path style="opacity:0.992" fill="#000000" d="M 336.5,380.5 C 343.251,379.295 349.085,380.962 354,385.5C 363.688,419.188 385.521,440.355 419.5,449C 455.503,455.714 486.67,446.547 513,421.5C 520.224,411.722 525.891,401.055 530,389.5C 537.104,380.795 545.604,379.295 555.5,385C 560.38,388.594 562.714,393.427 562.5,399.5C 556.426,427.417 541.426,449.25 517.5,465C 473.775,491.379 428.442,494.379 381.5,474C 352.424,458.59 333.257,435.09 324,403.5C 321.643,392.077 325.809,384.411 336.5,380.5 Z"/></g>
</svg>
